<svg width="67" height="57" viewBox="0 0 67 57" fill="none" xmlns="http://www.w3.org/2000/svg">
<g clip-path="url(#clip0_2534_1323)">
<path fill-rule="evenodd" clip-rule="evenodd" d="M28.5 0C12.7599 0 0 12.7599 0 28.5C0 44.2401 12.7599 57 28.5 57H38.5C54.2401 57 67 44.2401 67 28.5C67 12.7599 54.2401 0 38.5 0H28.5ZM33.5621 7.53665C33.5093 10.7408 33.0844 11.7226 32.2883 14.4817C31.4921 17.1518 30.112 19.555 28.1484 21.6911C26.2376 23.7383 23.6104 25.3848 20.2666 26.6309C16.9757 27.7879 14.7561 28.411 9.60797 28.5C14.8625 28.678 17.1616 29.4346 20.5054 30.7696C23.9021 32.0157 26.5561 33.7068 28.4668 35.8429C30.4304 37.9791 31.7577 40.4712 32.4475 43.3194C33.1908 46.1679 33.5621 46.2386 33.5621 49.5314C33.5621 46.2386 33.9073 46.1679 34.5971 43.3194C35.3404 40.4712 36.6671 37.9791 38.5778 35.8429C40.4885 33.7068 43.1158 32.0157 46.4596 30.7696C49.8563 29.4346 52.2089 28.678 57.5163 28.5C52.3681 28.411 50.1218 27.7879 46.778 26.6309C43.4871 25.3848 40.8599 23.7383 38.8963 21.6911C36.9327 19.555 35.5525 17.1518 34.7563 14.4817C34.0131 11.7226 33.615 10.7408 33.5621 7.53665Z" fill="black"/>
</g>
<defs>
<clipPath id="clip0_2534_1323">
<rect width="67" height="57" fill="white"/>
</clipPath>
</defs>
</svg>
