<svg width="346" height="109" viewBox="0 0 346 109" fill="none" xmlns="http://www.w3.org/2000/svg">
<path d="M40.0799 0.664062H66.9599L106.64 36.5041H77.1999L53.5199 15.2561L29.8399 36.5041H0.399902L40.0799 0.664062ZM0.399902 39.0641H106.64V56.0881H0.399902V39.0641ZM0.399902 59.0321H106.64V86.0401C100.069 86.9788 93.6266 87.7894 87.3119 88.4721C80.9972 89.0694 74.5972 89.5814 68.1119 90.0081C61.6266 90.4348 54.9279 90.7334 48.0159 90.9041C41.1039 91.0748 33.7652 91.1601 25.9999 91.1601V93.9761C33.7652 93.9761 41.1039 93.8908 48.0159 93.7201C55.0132 93.5494 61.7972 93.2934 68.3679 92.9521C74.9386 92.5254 81.3812 91.9708 87.6959 91.2881C94.0959 90.6054 100.624 89.7948 107.28 88.8561V108.952H0.399902V76.6961H81.0399V74.0081H0.399902V59.0321ZM158.44 59.1601C158.952 56.2588 159.421 53.1868 159.848 49.9441C160.275 46.6161 160.659 43.2881 161 39.9601C161.427 36.6321 161.811 33.3468 162.152 30.1041C162.493 26.7761 162.749 23.5761 162.92 20.5041H118.76V0.664062H190.44C190.013 10.9894 189.373 21.0588 188.52 30.8721C187.752 40.6854 186.685 50.1148 185.32 59.1601H158.44ZM196.2 0.664062H221.8V20.3761H233.32V42.1361H221.8V63.8961H196.2V0.664062ZM159.08 62.6161H185.96L226.92 108.952H192.36L172.52 84.8881L152.68 108.952H118.12L159.08 62.6161ZM294.592 0.664062H316.864V15.8961H322.368V0.664062H344.64V56.2161H322.368V37.6561H316.864V56.2161H294.592V0.664062ZM250.56 0.664062H278.72L292.16 56.2161H269.632L264.64 28.6961L259.648 56.2161H237.12L250.56 0.664062ZM345.28 84.5041C345.28 88.0028 344.768 91.2454 343.744 94.2321C342.805 97.2188 341.355 99.7788 339.392 101.912C337.429 104.131 334.997 105.837 332.096 107.032C329.195 108.312 325.824 108.952 321.984 108.952H261.056C257.216 108.952 253.845 108.312 250.944 107.032C248.043 105.837 245.611 104.131 243.648 101.912C241.685 99.7788 240.192 97.2188 239.168 94.2321C238.229 91.2454 237.76 88.0028 237.76 84.5041C237.76 81.0054 238.229 77.7628 239.168 74.7761C240.192 71.7894 241.685 69.2294 243.648 67.0961C245.611 64.8774 248.043 63.1708 250.944 61.9761C253.845 60.6961 257.216 60.0561 261.056 60.0561H321.984C325.824 60.0561 329.195 60.6961 332.096 61.9761C334.997 63.1708 337.429 64.8774 339.392 67.0961C341.355 69.2294 342.805 71.7894 343.744 74.7761C344.768 77.7628 345.28 81.0054 345.28 84.5041ZM291.52 62.4881C291.435 65.5601 290.752 68.4188 289.472 71.0641C288.192 73.6241 285.973 75.9281 282.816 77.9761C279.744 79.9388 275.52 81.5174 270.144 82.7121C264.853 83.8214 258.069 84.4188 249.792 84.5041C258.24 84.6748 265.152 85.4001 270.528 86.6801C275.989 87.8748 280.256 89.4961 283.328 91.5441C286.485 93.5921 288.619 95.9814 289.728 98.7121C290.923 101.443 291.52 104.387 291.52 107.544C291.52 104.387 292.075 101.443 293.184 98.7121C294.379 95.9814 296.512 93.5921 299.584 91.5441C302.656 89.4961 306.88 87.8748 312.256 86.6801C317.717 85.4001 324.715 84.6748 333.248 84.5041C324.971 84.4188 318.144 83.8214 312.768 82.7121C307.477 81.5174 303.253 79.9388 300.096 77.9761C296.939 75.9281 294.72 73.6241 293.44 71.0641C292.245 68.4188 291.605 65.5601 291.52 62.4881Z" fill="black"/>
</svg>
