<svg width="345" height="109" viewBox="0 0 345 109" fill="none" xmlns="http://www.w3.org/2000/svg">
<path d="M39.68 0H66.56L106.24 35.84H76.8L53.12 14.592L29.44 35.84H0L39.68 0ZM0 38.4H106.24V55.424H0V38.4ZM0 58.368H106.24V85.376C99.669 86.3147 93.2267 87.1253 86.912 87.808C80.5973 88.4053 74.1973 88.9173 67.712 89.344C61.2267 89.7707 54.528 90.0693 47.616 90.24C40.704 90.4107 33.3653 90.496 25.6 90.496V93.312C33.3653 93.312 40.704 93.2267 47.616 93.056C54.6133 92.8853 61.3973 92.6293 67.968 92.288C74.5387 91.8613 80.9813 91.3067 87.296 90.624C93.696 89.9413 100.224 89.1307 106.88 88.192V108.288H0V76.032H80.64V73.344H0V58.368ZM158.04 58.496C158.552 55.5947 159.021 52.5227 159.448 49.28C159.875 45.952 160.259 42.624 160.6 39.296C161.027 35.968 161.411 32.6827 161.752 29.44C162.093 26.112 162.349 22.912 162.52 19.84H118.36V0H190.04C189.613 10.3253 188.973 20.3947 188.12 30.208C187.352 40.0213 186.285 49.4507 184.92 58.496H158.04ZM195.8 0H221.4V19.712H232.92V41.472H221.4V63.232H195.8V0ZM158.68 61.952H185.56L226.52 108.288H191.96L172.12 84.224L152.28 108.288H117.72L158.68 61.952ZM294.192 0H316.464V15.232H321.968V0H344.24V55.552H321.968V36.992H316.464V55.552H294.192V0ZM250.16 0H278.32L291.76 55.552H269.232L264.24 28.032L259.248 55.552H236.72L250.16 0ZM344.88 83.84C344.88 87.3387 344.368 90.5813 343.344 93.568C342.405 96.5547 340.955 99.1147 338.992 101.248C337.029 103.467 334.597 105.173 331.696 106.368C328.795 107.648 325.424 108.288 321.584 108.288H260.656C256.816 108.288 253.445 107.648 250.544 106.368C247.643 105.173 245.211 103.467 243.248 101.248C241.285 99.1147 239.792 96.5547 238.768 93.568C237.829 90.5813 237.36 87.3387 237.36 83.84C237.36 80.3413 237.829 77.0987 238.768 74.112C239.792 71.1253 241.285 68.5653 243.248 66.432C245.211 64.2133 247.643 62.5067 250.544 61.312C253.445 60.032 256.816 59.392 260.656 59.392H321.584C325.424 59.392 328.795 60.032 331.696 61.312C334.597 62.5067 337.029 64.2133 338.992 66.432C340.955 68.5653 342.405 71.1253 343.344 74.112C344.368 77.0987 344.88 80.3413 344.88 83.84ZM291.12 61.824C291.035 64.896 290.352 67.7547 289.072 70.4C287.792 72.96 285.573 75.264 282.416 77.312C279.344 79.2747 275.12 80.8533 269.744 82.048C264.453 83.1573 257.669 83.7547 249.392 83.84C257.84 84.0107 264.752 84.736 270.128 86.016C275.589 87.2107 279.856 88.832 282.928 90.88C286.085 92.928 288.219 95.3173 289.328 98.048C290.523 100.779 291.12 103.723 291.12 106.88C291.12 103.723 291.675 100.779 292.784 98.048C293.979 95.3173 296.112 92.928 299.184 90.88C302.256 88.832 306.48 87.2107 311.856 86.016C317.317 84.736 324.315 84.0107 332.848 83.84C324.571 83.7547 317.744 83.1573 312.368 82.048C307.077 80.8533 302.853 79.2747 299.696 77.312C296.539 75.264 294.32 72.96 293.04 70.4C291.845 67.7547 291.205 64.896 291.12 61.824Z" fill="#EBEBEB"/>
</svg>
